<svg xmlns="http://www.w3.org/2000/svg" width="32" height="32"><path style="line-height:normal;text-indent:0;text-align:start;text-decoration-line:none;text-decoration-style:solid;text-decoration-color:#000;text-transform:none;block-progression:tb;isolation:auto;mix-blend-mode:normal" fill-rule="evenodd" d="m16.2 4.045 2.45 1.047L8.262 9.535a.5.5 0 0 0-.03.014L5.78 8.5Zm3.722 1.592 2.974 1.271-10.582 4.526a.5.5 0 0 0-.3.51.52.52 0 0 0-.002.058v5.35l-1.084-1.627a.5.5 0 0 0-.639-.17l-1.277.638v-5.89zm4.246 1.814L26.621 8.5 16.2 12.955l-2.451-1.047 10.39-4.443a.504.504 0 0 0 .03-.014zM5.012 9.258l3 1.283v6.461a.5.5 0 0 0 .724.447l1.604-.803 1.728 2.592a.5.5 0 0 0 .301.248l.002.002a.499.499 0 0 0 .277 0 .5.5 0 0 0 .363-.545v-6.261L15.7 13.83v13.914l-10.687-4.57zm22.375.002v13.914l-10.688 4.572V13.83zM21.11 20.752l-.006.002a.5.5 0 0 0-.18.043l-2.915 1.246c-.614.262-.221 1.182.392.92l2.918-1.246c.528-.207.358-.995-.209-.965zm2.91.75a.5.5 0 0 0-.177.043l-2.918 1.246-2.916 1.248c-.614.262-.22 1.182.392.92l2.918-1.248 2.916-1.248c.516-.216.344-.986-.215-.961z" color="#000" font-family="sans-serif" font-weight="400" overflow="visible"/></svg>